<svg data-v-423bf9ae="" xmlns="http://www.w3.org/2000/svg" viewBox="0 0 562 90" class="iconLeft"><!----><!----><!----><g data-v-423bf9ae="" id="d6c733e0-31bc-4573-82cf-d089c170b41e" fill="black" transform="matrix(6.256517105873957,0,0,6.256517105873957,90.1835765045407,-6.710113821127287)"><path d="M6.40 4.45L3.68 4.45Q3.65 5.25 3.65 6.06Q3.65 6.87 3.65 7.71L3.65 7.71L5.52 7.71L5.70 6.47L6.45 6.47L6.45 9.86L5.70 9.86L5.52 8.48L3.65 8.48Q3.65 9.41 3.65 10.28Q3.65 11.16 3.68 12.01L3.68 12.01L4.96 12.15L4.96 12.85L0.45 12.85L0.45 12.15L1.58 12.03Q1.61 11.16 1.61 10.28Q1.61 9.41 1.61 8.51L1.61 8.51L1.61 8.02Q1.61 7.14 1.61 6.27Q1.61 5.39 1.58 4.51L1.58 4.51L0.45 4.38L0.45 3.68L7.64 3.68L7.74 6.12L6.69 6.12L6.40 4.45ZM11.65 7.97L12.26 7.97Q12.80 7.97 13.17 7.82Q13.54 7.67 13.77 7.43Q14 7.18 14.11 6.85Q14.21 6.51 14.21 6.13L14.21 6.13Q14.21 5.29 13.75 4.87Q13.29 4.45 12.26 4.45L12.26 4.45L11.68 4.45Q11.65 5.32 11.65 6.20Q11.65 7.07 11.65 7.97L11.65 7.97ZM16.16 12.03L17.32 12.15L17.32 12.85Q16.90 12.94 16.58 12.96Q16.25 12.99 15.96 12.99L15.96 12.99Q15.55 12.99 15.23 12.94Q14.90 12.89 14.64 12.77Q14.39 12.64 14.22 12.41Q14.06 12.18 13.99 11.82L13.99 11.82L13.62 9.95Q13.48 9.27 13.13 9.00Q12.78 8.74 12.08 8.74L12.08 8.74L11.65 8.74Q11.65 9.56 11.65 10.38Q11.65 11.20 11.68 12.03L11.68 12.03L12.84 12.15L12.84 12.85L8.47 12.85L8.47 12.15L9.60 12.03Q9.63 11.16 9.63 10.28Q9.63 9.41 9.63 8.51L9.63 8.51L9.63 8.02Q9.63 7.14 9.63 6.27Q9.63 5.39 9.60 4.51L9.60 4.51L8.47 4.38L8.47 3.68L12.84 3.68Q14.42 3.68 15.30 4.30Q16.17 4.91 16.17 5.99L16.17 5.99Q16.17 6.33 16.07 6.69Q15.96 7.04 15.71 7.37Q15.47 7.70 15.07 7.96Q14.67 8.22 14.08 8.37L14.08 8.37Q14.76 8.57 15.19 9.02Q15.62 9.48 15.78 10.23L15.78 10.23L16.16 12.03ZM24.39 10.42L25.44 10.42L25.34 12.85L17.86 12.85L17.86 12.15L19.00 12.03Q19.03 11.16 19.03 10.28Q19.03 9.41 19.03 8.51L19.03 8.51L19.03 8.02Q19.03 7.14 19.03 6.27Q19.03 5.39 19.00 4.51L19.00 4.51L17.86 4.38L17.86 3.68L25.06 3.68L25.16 6.12L24.11 6.12L23.81 4.45L21.10 4.45Q21.07 5.25 21.07 6.06Q21.07 6.87 21.07 7.71L21.07 7.71L22.86 7.71L23.04 6.47L23.80 6.47L23.80 9.72L23.04 9.72L22.88 8.48L21.07 8.48Q21.07 9.44 21.07 10.32Q21.07 11.21 21.10 12.10L21.10 12.10L24.09 12.10L24.39 10.42ZM30.60 4.38L29.47 4.51Q29.44 5.38 29.44 6.25Q29.44 7.13 29.44 8.02L29.44 8.02L29.44 8.51Q29.44 9.39 29.44 10.27Q29.44 11.14 29.47 12.03L29.47 12.03L30.60 12.15L30.60 12.85L26.24 12.85L26.24 12.15L27.37 12.03Q27.40 11.16 27.40 10.28Q27.40 9.41 27.40 8.51L27.40 8.51L27.40 8.02Q27.40 7.14 27.40 6.27Q27.40 5.39 27.37 4.51L27.37 4.51L26.24 4.38L26.24 3.68L30.60 3.68L30.60 4.38ZM40.01 8.50L40.01 9.20L39.26 9.30Q39.24 9.88 39.23 10.46Q39.23 11.05 39.23 11.65L39.23 11.65L39.23 12.25Q38.49 12.66 37.76 12.86Q37.03 13.06 36.19 13.06L36.19 13.06Q35.08 13.06 34.19 12.70Q33.29 12.33 32.66 11.70Q32.02 11.06 31.68 10.19Q31.33 9.31 31.33 8.27L31.33 8.27Q31.33 7.24 31.68 6.36Q32.03 5.47 32.68 4.84Q33.33 4.20 34.26 3.84Q35.18 3.47 36.33 3.47L36.33 3.47Q37.00 3.47 37.67 3.62Q38.35 3.77 39.09 4.13L39.09 4.13L39.14 6.12L38.02 6.12L37.77 4.56Q37.11 4.24 36.43 4.24L36.43 4.24Q35.07 4.24 34.27 5.29Q33.47 6.34 33.47 8.27L33.47 8.27Q33.47 9.23 33.70 9.97Q33.94 10.72 34.34 11.24Q34.73 11.76 35.28 12.03Q35.83 12.29 36.47 12.29L36.47 12.29Q36.88 12.29 37.21 12.19L37.21 12.19L37.21 11.65Q37.21 11.06 37.20 10.49Q37.20 9.91 37.18 9.32L37.18 9.32L36.15 9.20L36.15 8.50L40.01 8.50ZM50.75 4.38L49.62 4.51Q49.59 5.38 49.59 6.25Q49.59 7.13 49.59 8.02L49.59 8.02L49.59 8.51Q49.59 9.39 49.59 10.27Q49.59 11.14 49.62 12.03L49.62 12.03L50.75 12.15L50.75 12.85L46.38 12.85L46.38 12.15L47.52 12.03Q47.54 11.19 47.54 10.31Q47.54 9.44 47.54 8.50L47.54 8.50L43.72 8.50Q43.72 9.42 43.72 10.30Q43.72 11.17 43.75 12.03L43.75 12.03L44.88 12.15L44.88 12.85L40.52 12.85L40.52 12.15L41.65 12.03Q41.68 11.16 41.68 10.28Q41.68 9.41 41.68 8.51L41.68 8.51L41.68 8.02Q41.68 7.14 41.68 6.27Q41.68 5.39 41.65 4.51L41.65 4.51L40.52 4.38L40.52 3.68L44.88 3.68L44.88 4.38L43.75 4.51Q43.72 5.31 43.72 6.10Q43.72 6.90 43.72 7.73L43.72 7.73L47.54 7.73Q47.54 6.92 47.54 6.11Q47.54 5.31 47.52 4.51L47.52 4.51L46.38 4.38L46.38 3.68L50.75 3.68L50.75 4.38ZM58.60 4.45L56.76 4.45Q56.73 5.33 56.73 6.22Q56.73 7.11 56.73 8.02L56.73 8.02L56.73 8.51Q56.73 9.39 56.73 10.26Q56.73 11.13 56.76 12.01L56.76 12.01L58.03 12.15L58.03 12.85L53.38 12.85L53.38 12.15L54.66 12.01Q54.68 11.14 54.68 10.27Q54.68 9.39 54.68 8.51L54.68 8.51L54.68 8.02Q54.68 7.13 54.68 6.24Q54.68 5.35 54.66 4.45L54.66 4.45L52.81 4.45L52.53 6.26L51.48 6.26L51.55 3.68L59.86 3.68L59.93 6.26L58.88 6.26L58.60 4.45ZM66.95 10.14L68.05 10.14L67.91 12.85L60.66 12.85L60.66 12.15L61.80 12.03Q61.82 11.16 61.82 10.28Q61.82 9.41 61.82 8.51L61.82 8.51L61.82 8.02Q61.82 7.14 61.82 6.27Q61.82 5.39 61.80 4.51L61.80 4.51L60.66 4.38L60.66 3.68L65.10 3.68L65.10 4.38L63.90 4.51Q63.87 5.39 63.87 6.26Q63.87 7.13 63.87 8.02L63.87 8.02L63.87 8.51Q63.87 9.41 63.87 10.30Q63.87 11.19 63.90 12.08L63.90 12.08L66.56 12.08L66.95 10.14ZM74.35 4.56L72.20 8.75L72.20 9.70Q72.20 10.07 72.20 10.37Q72.20 10.67 72.20 10.93Q72.20 11.20 72.20 11.46Q72.21 11.72 72.21 12.01L72.21 12.01L73.50 12.15L73.50 12.85L68.85 12.85L68.85 12.15L70.14 12.01Q70.15 11.45 70.15 10.95Q70.15 10.44 70.15 9.70L70.15 9.70L70.15 8.90L67.87 4.48L66.96 4.38L66.96 3.68L71.26 3.68L71.26 4.38L70.15 4.51L71.78 8.12L73.54 4.54L72.42 4.38L72.42 3.68L75.39 3.68L75.39 4.38L74.35 4.56Z"></path></g><!----><g data-v-423bf9ae="" id="b87f54f9-0352-4dc8-9a83-fcc14f9ba517" transform="matrix(1.0522377875005018,0,0,1.0522377875005018,-15.299363270478878,-7.378097101544661)" stroke="none" fill="black"><path style="block-progression:tb;text-indent:0;text-transform:none" d="M52.312 7.238L29.937 20.176l22.344 12.938 22.375-12.938L52.312 7.238zm-22.938 14v9.812a.6.6 0 010 .094V47.113l9.063 5.25.093.031a.6.6 0 010 .031.6.6 0 01.031 0l.032.031a.6.6 0 01.031 0 .6.6 0 010 .031.6.6 0 01.031.031h.031a.6.6 0 01.032.031l13 7.5V34.174L29.374 21.236zm45.875 0L52.905 34.144V60.05l22.344-12.97V21.238zM28.187 32.176L15.906 39.3l12.281 7.094v-14.22zm-12.875 8.187v25.844l22.312 12.938V53.27l-9-5.218a.6.6 0 01-.156-.094.6.6 0 01-.063-.031l-.031-.031-13.062-7.532zm60.531 7.782L53.531 61.083l8.219 4.75 22.344-12.906-8.25-4.782zm-37 5.843v25.875L61.155 92.77V66.894l-8.938-5.187h-.062a.6.6 0 01-.063-.062h-.03a.6.6 0 01-.032-.031h-.031l-10.406-6.031-2.75-1.594zm45.844 0L62.375 66.894V92.77l22.312-12.906V53.988z" color="#000"></path></g><!----></svg>